<svg id="visual" viewBox="0 0 1400 250" width="1400" height="250" xmlns="http://www.w3.org/2000/svg" xmlns:xlink="http://www.w3.org/1999/xlink" version="1.1"><path d="M0 29L88 39L175 36L263 39L350 41L438 41L525 26L613 44L700 46L788 31L875 44L963 29L1050 26L1138 41L1225 29L1313 31L1400 39L1400 0L1313 0L1225 0L1138 0L1050 0L963 0L875 0L788 0L700 0L613 0L525 0L438 0L350 0L263 0L175 0L88 0L0 0Z" fill="#fa7066"></path><path d="M0 41L88 56L175 56L263 59L350 61L438 54L525 41L613 56L700 66L788 49L875 56L963 46L1050 41L1138 51L1225 46L1313 49L1400 54L1400 37L1313 29L1225 27L1138 39L1050 24L963 27L875 42L788 29L700 44L613 42L525 24L438 39L350 39L263 37L175 34L88 37L0 27Z" fill="#ea5666"></path><path d="M0 54L88 71L175 81L263 81L350 74L438 69L525 56L613 81L700 91L788 74L875 79L963 64L1050 61L1138 64L1225 66L1313 76L1400 79L1400 52L1313 47L1225 44L1138 49L1050 39L963 44L875 54L788 47L700 64L613 54L525 39L438 52L350 59L263 57L175 54L88 54L0 39Z" fill="#d73b67"></path><path d="M0 149L88 149L175 134L263 149L350 121L438 139L525 131L613 131L700 151L788 111L875 111L963 104L1050 121L1138 126L1225 149L1313 161L1400 126L1400 77L1313 74L1225 64L1138 62L1050 59L963 62L875 77L788 72L700 89L613 79L525 54L438 67L350 72L263 79L175 79L88 69L0 52Z" fill="#c62368"></path><path d="M0 189L88 184L175 201L263 196L350 171L438 184L525 176L613 174L700 199L788 171L875 171L963 171L1050 179L1138 199L1225 186L1313 204L1400 189L1400 124L1313 159L1225 147L1138 124L1050 119L963 102L875 109L788 109L700 149L613 129L525 129L438 137L350 119L263 147L175 132L88 147L0 147Z" fill="#c62368"></path><path d="M0 214L88 216L175 221L263 214L350 201L438 199L525 214L613 209L700 216L788 206L875 206L963 209L1050 209L1138 219L1225 219L1313 219L1400 224L1400 187L1313 202L1225 184L1138 197L1050 177L963 169L875 169L788 169L700 197L613 172L525 174L438 182L350 169L263 194L175 199L88 182L0 187Z" fill="#d73b67"></path><path d="M0 224L88 226L175 239L263 236L350 219L438 221L525 236L613 231L700 239L788 229L875 226L963 219L1050 219L1138 234L1225 239L1313 234L1400 234L1400 222L1313 217L1225 217L1138 217L1050 207L963 207L875 204L788 204L700 214L613 207L525 212L438 197L350 199L263 212L175 219L88 214L0 212Z" fill="#ea5666"></path><path d="M0 251L88 251L175 251L263 251L350 251L438 251L525 251L613 251L700 251L788 251L875 251L963 251L1050 251L1138 251L1225 251L1313 251L1400 251L1400 232L1313 232L1225 237L1138 232L1050 217L963 217L875 224L788 227L700 237L613 229L525 234L438 219L350 217L263 234L175 237L88 224L0 222Z" fill="#fa7066"></path></svg>