<svg id="visual" viewBox="0 0 900 74" width="900" height="74" xmlns="http://www.w3.org/2000/svg" xmlns:xlink="http://www.w3.org/1999/xlink" version="1.1"><rect x="0" y="0" width="900" height="74" fill="#001220"></rect><path d="M0 64L6.8 63.5C13.7 63 27.3 62 41 62.8C54.7 63.7 68.3 66.3 82 67.3C95.7 68.3 109.3 67.7 123 67.8C136.7 68 150.3 69 164 69C177.7 69 191.3 68 204.8 68C218.3 68 231.7 69 245.2 69.7C258.7 70.3 272.3 70.7 286 69.7C299.7 68.7 313.3 66.3 327 64.2C340.7 62 354.3 60 368 59.2C381.7 58.3 395.3 58.7 409 59.8C422.7 61 436.3 63 450 63.5C463.7 64 477.3 63 491 63.3C504.7 63.7 518.3 65.3 532 66.5C545.7 67.7 559.3 68.3 573 68.8C586.7 69.3 600.3 69.7 614 68.8C627.7 68 641.3 66 654.8 65.7C668.3 65.3 681.7 66.7 695.2 66C708.7 65.3 722.3 62.7 736 62.3C749.7 62 763.3 64 777 65.3C790.7 66.7 804.3 67.3 818 68.2C831.7 69 845.3 70 859 69.7C872.7 69.3 886.3 67.7 893.2 66.8L900 66L900 0L893.2 0C886.3 0 872.7 0 859 0C845.3 0 831.7 0 818 0C804.3 0 790.7 0 777 0C763.3 0 749.7 0 736 0C722.3 0 708.7 0 695.2 0C681.7 0 668.3 0 654.8 0C641.3 0 627.7 0 614 0C600.3 0 586.7 0 573 0C559.3 0 545.7 0 532 0C518.3 0 504.7 0 491 0C477.3 0 463.7 0 450 0C436.3 0 422.7 0 409 0C395.3 0 381.7 0 368 0C354.3 0 340.7 0 327 0C313.3 0 299.7 0 286 0C272.3 0 258.7 0 245.2 0C231.7 0 218.3 0 204.8 0C191.3 0 177.7 0 164 0C150.3 0 136.7 0 123 0C109.3 0 95.7 0 82 0C68.3 0 54.7 0 41 0C27.3 0 13.7 0 6.8 0L0 0Z" fill="#3c005c"></path><path d="M0 51L6.8 52.5C13.7 54 27.3 57 41 57.7C54.7 58.3 68.3 56.7 82 56.8C95.7 57 109.3 59 123 58.3C136.7 57.7 150.3 54.3 164 54.3C177.7 54.3 191.3 57.7 204.8 59.5C218.3 61.3 231.7 61.7 245.2 60C258.7 58.3 272.3 54.7 286 53.3C299.7 52 313.3 53 327 54.5C340.7 56 354.3 58 368 58.7C381.7 59.3 395.3 58.7 409 58.2C422.7 57.7 436.3 57.3 450 57.5C463.7 57.7 477.3 58.3 491 58.3C504.7 58.3 518.3 57.7 532 57.3C545.7 57 559.3 57 573 56.3C586.7 55.7 600.3 54.3 614 54.7C627.7 55 641.3 57 654.8 57.5C668.3 58 681.7 57 695.2 57.2C708.7 57.3 722.3 58.7 736 58C749.7 57.3 763.3 54.7 777 53.2C790.7 51.7 804.3 51.3 818 52C831.7 52.7 845.3 54.3 859 55.3C872.7 56.3 886.3 56.7 893.2 56.8L900 57L900 0L893.2 0C886.3 0 872.7 0 859 0C845.3 0 831.7 0 818 0C804.3 0 790.7 0 777 0C763.3 0 749.7 0 736 0C722.3 0 708.7 0 695.2 0C681.7 0 668.3 0 654.8 0C641.3 0 627.7 0 614 0C600.3 0 586.7 0 573 0C559.3 0 545.7 0 532 0C518.3 0 504.7 0 491 0C477.3 0 463.7 0 450 0C436.3 0 422.7 0 409 0C395.3 0 381.7 0 368 0C354.3 0 340.7 0 327 0C313.3 0 299.7 0 286 0C272.3 0 258.7 0 245.2 0C231.7 0 218.3 0 204.8 0C191.3 0 177.7 0 164 0C150.3 0 136.7 0 123 0C109.3 0 95.7 0 82 0C68.3 0 54.7 0 41 0C27.3 0 13.7 0 6.8 0L0 0Z" fill="#4a016a"></path><path d="M0 54L6.8 52.8C13.7 51.7 27.3 49.3 41 48.8C54.7 48.3 68.3 49.7 82 49C95.7 48.3 109.3 45.7 123 45C136.7 44.3 150.3 45.7 164 46C177.7 46.3 191.3 45.7 204.8 46.7C218.3 47.7 231.7 50.3 245.2 51.8C258.7 53.3 272.3 53.7 286 53C299.7 52.3 313.3 50.7 327 48.8C340.7 47 354.3 45 368 43.8C381.7 42.7 395.3 42.3 409 43.5C422.7 44.7 436.3 47.3 450 47.3C463.7 47.3 477.3 44.7 491 43.8C504.7 43 518.3 44 532 45.2C545.7 46.3 559.3 47.7 573 47.3C586.7 47 600.3 45 614 44.8C627.7 44.7 641.3 46.3 654.8 46.2C668.3 46 681.7 44 695.2 43.8C708.7 43.7 722.3 45.3 736 45.3C749.7 45.3 763.3 43.7 777 43.3C790.7 43 804.3 44 818 44.3C831.7 44.7 845.3 44.3 859 45.8C872.7 47.3 886.3 50.7 893.2 52.3L900 54L900 0L893.2 0C886.3 0 872.7 0 859 0C845.3 0 831.7 0 818 0C804.3 0 790.7 0 777 0C763.3 0 749.7 0 736 0C722.3 0 708.7 0 695.2 0C681.7 0 668.3 0 654.8 0C641.3 0 627.7 0 614 0C600.3 0 586.7 0 573 0C559.3 0 545.7 0 532 0C518.3 0 504.7 0 491 0C477.3 0 463.7 0 450 0C436.3 0 422.7 0 409 0C395.3 0 381.7 0 368 0C354.3 0 340.7 0 327 0C313.3 0 299.7 0 286 0C272.3 0 258.7 0 245.2 0C231.7 0 218.3 0 204.8 0C191.3 0 177.7 0 164 0C150.3 0 136.7 0 123 0C109.3 0 95.7 0 82 0C68.3 0 54.7 0 41 0C27.3 0 13.7 0 6.8 0L0 0Z" fill="#590278"></path><path d="M0 44L6.8 43.8C13.7 43.7 27.3 43.3 41 42C54.7 40.7 68.3 38.3 82 37.8C95.7 37.3 109.3 38.7 123 38.3C136.7 38 150.3 36 164 37C177.7 38 191.3 42 204.8 43.8C218.3 45.7 231.7 45.3 245.2 43.5C258.7 41.7 272.3 38.3 286 38C299.7 37.7 313.3 40.3 327 41.5C340.7 42.7 354.3 42.3 368 42.5C381.7 42.7 395.3 43.3 409 42.2C422.7 41 436.3 38 450 36.8C463.7 35.7 477.3 36.3 491 37.7C504.7 39 518.3 41 532 41.8C545.7 42.7 559.3 42.3 573 41.8C586.7 41.3 600.3 40.7 614 40.2C627.7 39.7 641.3 39.3 654.8 38.7C668.3 38 681.7 37 695.2 38C708.7 39 722.3 42 736 43.5C749.7 45 763.3 45 777 45.2C790.7 45.3 804.3 45.7 818 45.5C831.7 45.3 845.3 44.7 859 43C872.7 41.3 886.3 38.7 893.2 37.3L900 36L900 0L893.2 0C886.3 0 872.7 0 859 0C845.3 0 831.7 0 818 0C804.3 0 790.7 0 777 0C763.3 0 749.7 0 736 0C722.3 0 708.7 0 695.2 0C681.7 0 668.3 0 654.8 0C641.3 0 627.7 0 614 0C600.3 0 586.7 0 573 0C559.3 0 545.7 0 532 0C518.3 0 504.7 0 491 0C477.3 0 463.7 0 450 0C436.3 0 422.7 0 409 0C395.3 0 381.7 0 368 0C354.3 0 340.7 0 327 0C313.3 0 299.7 0 286 0C272.3 0 258.7 0 245.2 0C231.7 0 218.3 0 204.8 0C191.3 0 177.7 0 164 0C150.3 0 136.7 0 123 0C109.3 0 95.7 0 82 0C68.3 0 54.7 0 41 0C27.3 0 13.7 0 6.8 0L0 0Z" fill="#690486"></path><path d="M0 27L6.8 27.7C13.7 28.3 27.3 29.7 41 29.8C54.7 30 68.3 29 82 29.7C95.7 30.3 109.3 32.7 123 32.3C136.7 32 150.3 29 164 27.8C177.7 26.7 191.3 27.3 204.8 28C218.3 28.7 231.7 29.3 245.2 29.2C258.7 29 272.3 28 286 27.5C299.7 27 313.3 27 327 27.8C340.7 28.7 354.3 30.3 368 31.5C381.7 32.7 395.3 33.3 409 33C422.7 32.7 436.3 31.3 450 30C463.7 28.7 477.3 27.3 491 28.5C504.7 29.7 518.3 33.3 532 34.2C545.7 35 559.3 33 573 32.3C586.7 31.7 600.3 32.3 614 31.8C627.7 31.3 641.3 29.7 654.8 28.8C668.3 28 681.7 28 695.2 28.3C708.7 28.7 722.3 29.3 736 30.5C749.7 31.7 763.3 33.3 777 32.7C790.7 32 804.3 29 818 29.5C831.7 30 845.3 34 859 34.3C872.7 34.7 886.3 31.3 893.2 29.7L900 28L900 0L893.2 0C886.3 0 872.7 0 859 0C845.3 0 831.7 0 818 0C804.3 0 790.7 0 777 0C763.3 0 749.7 0 736 0C722.3 0 708.7 0 695.2 0C681.7 0 668.3 0 654.8 0C641.3 0 627.7 0 614 0C600.3 0 586.7 0 573 0C559.3 0 545.7 0 532 0C518.3 0 504.7 0 491 0C477.3 0 463.7 0 450 0C436.3 0 422.7 0 409 0C395.3 0 381.7 0 368 0C354.3 0 340.7 0 327 0C313.3 0 299.7 0 286 0C272.3 0 258.7 0 245.2 0C231.7 0 218.3 0 204.8 0C191.3 0 177.7 0 164 0C150.3 0 136.7 0 123 0C109.3 0 95.7 0 82 0C68.3 0 54.7 0 41 0C27.3 0 13.7 0 6.8 0L0 0Z" fill="#790494"></path><path d="M0 19L6.8 19C13.7 19 27.3 19 41 19.2C54.7 19.3 68.3 19.7 82 20C95.7 20.3 109.3 20.7 123 21.7C136.7 22.7 150.3 24.3 164 24.2C177.7 24 191.3 22 204.8 21.2C218.3 20.3 231.7 20.7 245.2 21.5C258.7 22.3 272.3 23.7 286 23.8C299.7 24 313.3 23 327 23.2C340.7 23.3 354.3 24.7 368 24.7C381.7 24.7 395.3 23.3 409 23.8C422.7 24.3 436.3 26.7 450 26.8C463.7 27 477.3 25 491 23.5C504.7 22 518.3 21 532 21C545.7 21 559.3 22 573 22.8C586.7 23.7 600.3 24.3 614 23.5C627.7 22.7 641.3 20.3 654.8 19.7C668.3 19 681.7 20 695.2 20C708.7 20 722.3 19 736 19.2C749.7 19.3 763.3 20.7 777 21.5C790.7 22.3 804.3 22.7 818 22.5C831.7 22.3 845.3 21.7 859 22.2C872.7 22.7 886.3 24.3 893.2 25.2L900 26L900 0L893.2 0C886.3 0 872.7 0 859 0C845.3 0 831.7 0 818 0C804.3 0 790.7 0 777 0C763.3 0 749.7 0 736 0C722.3 0 708.7 0 695.2 0C681.7 0 668.3 0 654.8 0C641.3 0 627.7 0 614 0C600.3 0 586.7 0 573 0C559.3 0 545.7 0 532 0C518.3 0 504.7 0 491 0C477.3 0 463.7 0 450 0C436.3 0 422.7 0 409 0C395.3 0 381.7 0 368 0C354.3 0 340.7 0 327 0C313.3 0 299.7 0 286 0C272.3 0 258.7 0 245.2 0C231.7 0 218.3 0 204.8 0C191.3 0 177.7 0 164 0C150.3 0 136.7 0 123 0C109.3 0 95.7 0 82 0C68.3 0 54.7 0 41 0C27.3 0 13.7 0 6.8 0L0 0Z" fill="#8a04a2"></path><path d="M0 19L6.8 18C13.7 17 27.3 15 41 13.8C54.7 12.7 68.3 12.3 82 13.7C95.7 15 109.3 18 123 17.7C136.7 17.3 150.3 13.7 164 12.7C177.7 11.7 191.3 13.3 204.8 14.7C218.3 16 231.7 17 245.2 18.2C258.7 19.3 272.3 20.7 286 20.3C299.7 20 313.3 18 327 16.3C340.7 14.7 354.3 13.3 368 12.7C381.7 12 395.3 12 409 12.8C422.7 13.7 436.3 15.3 450 15.7C463.7 16 477.3 15 491 14C504.7 13 518.3 12 532 12.2C545.7 12.3 559.3 13.7 573 14.8C586.7 16 600.3 17 614 17C627.7 17 641.3 16 654.8 16C668.3 16 681.7 17 695.2 17.5C708.7 18 722.3 18 736 18.5C749.7 19 763.3 20 777 19.3C790.7 18.7 804.3 16.3 818 16.5C831.7 16.7 845.3 19.3 859 20.3C872.7 21.3 886.3 20.7 893.2 20.3L900 20L900 0L893.2 0C886.3 0 872.7 0 859 0C845.3 0 831.7 0 818 0C804.3 0 790.7 0 777 0C763.3 0 749.7 0 736 0C722.3 0 708.7 0 695.2 0C681.7 0 668.3 0 654.8 0C641.3 0 627.7 0 614 0C600.3 0 586.7 0 573 0C559.3 0 545.7 0 532 0C518.3 0 504.7 0 491 0C477.3 0 463.7 0 450 0C436.3 0 422.7 0 409 0C395.3 0 381.7 0 368 0C354.3 0 340.7 0 327 0C313.3 0 299.7 0 286 0C272.3 0 258.7 0 245.2 0C231.7 0 218.3 0 204.8 0C191.3 0 177.7 0 164 0C150.3 0 136.7 0 123 0C109.3 0 95.7 0 82 0C68.3 0 54.7 0 41 0C27.3 0 13.7 0 6.8 0L0 0Z" fill="#9b03af"></path><path d="M0 5L6.8 5.2C13.7 5.3 27.3 5.7 41 6.8C54.7 8 68.3 10 82 9.5C95.7 9 109.3 6 123 5.5C136.7 5 150.3 7 164 8.2C177.7 9.3 191.3 9.7 204.8 9.2C218.3 8.7 231.7 7.3 245.2 7.7C258.7 8 272.3 10 286 10.5C299.7 11 313.3 10 327 9.2C340.7 8.3 354.3 7.7 368 8.2C381.7 8.7 395.3 10.3 409 11.3C422.7 12.3 436.3 12.7 450 12.2C463.7 11.7 477.3 10.3 491 9.3C504.7 8.3 518.3 7.7 532 7.3C545.7 7 559.3 7 573 6.2C586.7 5.3 600.3 3.7 614 4.3C627.7 5 641.3 8 654.8 9.8C668.3 11.7 681.7 12.3 695.2 12.5C708.7 12.7 722.3 12.3 736 11.8C749.7 11.3 763.3 10.7 777 10.7C790.7 10.7 804.3 11.3 818 11.3C831.7 11.3 845.3 10.7 859 8.8C872.7 7 886.3 4 893.2 2.5L900 1L900 0L893.2 0C886.3 0 872.7 0 859 0C845.3 0 831.7 0 818 0C804.3 0 790.7 0 777 0C763.3 0 749.7 0 736 0C722.3 0 708.7 0 695.2 0C681.7 0 668.3 0 654.8 0C641.3 0 627.7 0 614 0C600.3 0 586.7 0 573 0C559.3 0 545.7 0 532 0C518.3 0 504.7 0 491 0C477.3 0 463.7 0 450 0C436.3 0 422.7 0 409 0C395.3 0 381.7 0 368 0C354.3 0 340.7 0 327 0C313.3 0 299.7 0 286 0C272.3 0 258.7 0 245.2 0C231.7 0 218.3 0 204.8 0C191.3 0 177.7 0 164 0C150.3 0 136.7 0 123 0C109.3 0 95.7 0 82 0C68.3 0 54.7 0 41 0C27.3 0 13.7 0 6.8 0L0 0Z" fill="#ad00bd"></path></svg>